# xmcd
#
# Track frame offsets:
#	150
#	16057
#	32137
#	48622
#	60872
#	78562
#	93482
#	110147
#	128757
#	146775
#	161660
#	177545
#	196060
#
# Disc length: 2932 seconds
#
# Revision: 1
# Processed by: cddbd v1.5.2PL0 Copyright (c) Steve Scherf et al.
# Submitted via: audiograbber 1.83.01
#
DISCID=b00b720d
DTITLE=Suzie Merwine - Cajun Fiddle Blues Suzie Merwine
DYEAR=1999
DGENRE=Cajun
TTITLE0=Cajun Fiddle Blues
TTITLE1=Please Tell Me What To Do
TTITLE2=I Thank You
TTITLE3=I´ve Been Everywhere
TTITLE4=My Hearts On Go
TTITLE5=This Night On Fire
TTITLE6=The Millennium Pledge
TTITLE7=Livung, Breathing Part Of Me
TTITLE8=When I Turn Him Inside Out
TTITLE9=One Time In A Millon
TTITLE10=The Cheatin Side Of Me
TTITLE11=Christmas Miracle
TTITLE12=Walk Me True The Steps
EXTD=
EXTT0=
EXTT1=
EXTT2=
EXTT3=
EXTT4=
EXTT5=
EXTT6=
EXTT7=
EXTT8=
EXTT9=
EXTT10=
EXTT11=
EXTT12=
PLAYORDER=
